<svg xmlns="http://www.w3.org/2000/svg" xml:space="preserve" width="512px" height="64px" x="0px" y="0px"><path fill="#41EF77" fill-rule="evenodd" d="M114.659,55.222L114.659,55.222	c0.774,1.777,2.842,2.59,4.621,1.814c1.775-0.773,2.588-2.844,1.813-4.619L102.115,8.835c-0.575-1.318-1.865-2.105-3.216-2.105	c-1.352,0-2.642,0.787-3.217,2.105L76.705,52.417c-0.774,1.775,0.038,3.846,1.813,4.619c1.777,0.775,3.847-0.037,4.621-1.814	l4.284-9.836h22.956L114.659,55.222L114.659,55.222z M432.073,6.726c1.941,0,3.516,1.574,3.516,3.516s-1.574,3.514-3.516,3.514	h-23.195v14.146h17.57c1.943,0,3.516,1.559,3.516,3.477c0,1.922-1.572,3.48-3.516,3.48h-17.57v15.445h23.195	c1.941,0,3.516,1.574,3.516,3.516c0,1.943-1.574,3.518-3.516,3.518h-26.707c-1.943,0-3.518-1.574-3.518-3.518V10.241	c0-1.941,1.574-3.516,3.518-3.516H432.073L432.073,6.726z M371.624,53.819L371.624,53.819c0,1.941-1.574,3.516-3.516,3.516	s-3.516-1.574-3.516-3.516V13.753h-12.637c-1.949,0-3.529-1.572-3.529-3.516c0-1.941,1.58-3.512,3.529-3.512h32.303	c1.951,0,3.529,1.57,3.529,3.512c0,1.943-1.578,3.516-3.529,3.516h-12.635V53.819L371.624,53.819z M144.585,53.819L144.585,53.819	c0,1.941-1.574,3.516-3.514,3.516c-1.942,0-3.513-1.574-3.513-3.516V10.237c0-1.941,1.573-3.512,3.513-3.512	c1.157,0,2.182,0.557,2.823,1.418l30.21,36.023v-33.93c0-1.941,1.575-3.512,3.516-3.512c1.943,0,3.516,1.57,3.516,3.512v43.582	c0,1.941-1.573,3.516-3.516,3.516c-1.156,0-2.182-0.559-2.82-1.422L144.585,19.89V53.819L144.585,53.819z M202.927,10.237	L202.927,10.237c0-1.941,1.574-3.512,3.514-3.512c1.941,0,3.516,1.57,3.516,3.512v43.582c0,1.941-1.574,3.516-3.516,3.516	c-1.94,0-3.514-1.574-3.514-3.516V10.237L202.927,10.237z M336.776,55.222L336.776,55.222c0.773,1.777,2.844,2.59,4.621,1.814	c1.777-0.773,2.59-2.844,1.813-4.619L324.233,8.835c-0.574-1.318-1.863-2.105-3.217-2.105c-1.352,0-2.643,0.787-3.217,2.105	l-18.977,43.582c-0.777,1.775,0.039,3.846,1.813,4.619c1.779,0.775,3.848-0.037,4.621-1.814l4.285-9.836h22.955L336.776,55.222	L336.776,55.222z M312.599,38.356L312.599,38.356l8.416-19.328l8.416,19.328H312.599L312.599,38.356z M278.841,6.663L278.841,6.663	c-1.291,0.004-2.418,0.699-3.037,1.73L257.05,34.405L238.295,8.394c-0.619-1.033-1.746-1.727-3.037-1.73	c-1.942,0-3.516,1.574-3.516,3.518v43.639c0,1.941,1.574,3.516,3.516,3.516c1.943,0,3.514-1.574,3.514-3.516V21.132l15.402,21.363	c0.692,0.959,1.778,1.473,2.875,1.469c1.1,0.004,2.182-0.51,2.873-1.469l15.402-21.363v32.688c0,1.941,1.574,3.516,3.516,3.516	c1.939,0,3.514-1.574,3.514-3.516V10.181C282.354,8.237,280.78,6.663,278.841,6.663L278.841,6.663z M90.481,38.356L90.481,38.356	l8.416-19.328l8.416,19.328H90.481z" clip-rule="evenodd"/></svg>