<svg xmlns="http://www.w3.org/2000/svg" xml:space="preserve" width="64px" height="64px" x="0px" y="0px"><g fill="#41EF77" fill-rule="evenodd" clip-rule="evenodd"><path d="M31.979 14.902 31.979 14.902c-1.956-3.336-.837-7.626 2.5-9.584 3.336-1.956 7.626-.836 9.584 2.5l12.156 20.64c1.353 2.306 1.234 5.067-.068 7.198L44.063 56.181c-1.958 3.34-6.248 4.458-9.584 2.5-3.336-1.957-4.457-6.246-2.5-9.581L42.05 32 31.979 14.902zM7.769 21.366c-1.932-3.296-.828-7.534 2.469-9.466 3.295-1.933 7.533-.828 9.466 2.468L28.025 28.5c1.334 2.276 1.221 5.001-.063 7.107l-8.257 14.024c-1.933 3.294-6.171 4.401-9.466 2.466-3.296-1.931-4.4-6.17-2.469-9.463L14.031 32 7.769 21.366z"/></g></svg>