<?xml version="1.0" encoding="utf-8"?>
<!-- Generator: Adobe Illustrator 16.0.0, SVG Export Plug-In . SVG Version: 6.00 Build 0)  -->
<!DOCTYPE svg PUBLIC "-//W3C//DTD SVG 1.1//EN" "http://www.w3.org/Graphics/SVG/1.1/DTD/svg11.dtd">
<svg version="1.1" id="Layer_1" xmlns="http://www.w3.org/2000/svg" xmlns:xlink="http://www.w3.org/1999/xlink" x="0px" y="0px"
	 width="512px" height="64px" viewBox="0 0 512 64" enable-background="new 0 0 512 64" xml:space="preserve">
<path fill-rule="evenodd" clip-rule="evenodd" fill="#FFFFFF" d="M438.702,2.829L438.702,2.829c5.646,0,10.918,1.606,15.383,4.382
	c0.963,0.602,1.281,1.86,0.711,2.844l-2.445,4.236c-1.627,2.816-4.977,4.154-8.092,3.224c-1.373-0.41-2.824-0.628-4.328-0.628
	c-8.346,0-15.115,6.766-15.115,15.112s6.77,15.112,15.115,15.112c1.504,0,2.957-0.22,4.328-0.628
	c3.121-0.932,6.461,0.402,8.092,3.224l2.445,4.236c0.568,0.985,0.254,2.244-0.711,2.844c-4.465,2.778-9.736,4.382-15.383,4.382
	c-16.111,0-29.17-13.06-29.17-29.17C409.532,15.89,422.591,2.829,438.702,2.829L438.702,2.829z M40.274,2.829
	c5.646,0,10.916,1.606,15.382,4.382c0.966,0.602,1.282,1.86,0.712,2.844l-2.445,4.236c-1.627,2.816-4.977,4.154-8.093,3.224
	c-1.372-0.41-2.823-0.628-4.328-0.628c-8.346,0-15.111,6.766-15.111,15.112s6.766,15.112,15.111,15.112
	c1.505,0,2.956-0.22,4.328-0.628c3.122-0.932,6.462,0.402,8.093,3.224l2.445,4.236c0.57,0.985,0.254,2.244-0.712,2.844
	c-4.466,2.778-9.735,4.382-15.382,4.382c-16.112,0-29.17-13.06-29.17-29.17C11.104,15.89,24.162,2.829,40.274,2.829L40.274,2.829z
	 M212.979,34.348L212.979,34.348c-7.221-4.869-10.021-9.935-10.021-16.404c0-9.17,7.795-14.762,18.979-14.762
	c4.789,0,9.285,1.262,13.172,3.468c1.018,0.578,1.371,1.876,0.785,2.888l-1.695,2.937c-1.609,2.79-4.914,4.132-8.01,3.248
	c-1.352-0.387-2.779-0.59-4.252-0.59c-5.203,0-5.752,4.75-2.408,7.004l11.746,7.922c4.955,3.342,7.885,8.464,7.885,14.244
	c0,9.317-7.445,16.518-18.979,16.518c-4.723,0-9.219-0.97-13.301-2.722c-3.857-1.658-5.422-6.339-3.318-9.979l1.727-2.998
	c0.605-1.042,1.953-1.368,2.965-0.722c3.398,2.174,8.178,3.768,12.277,3.768c5.23,0,5.621-4.939,1.871-7.468L212.979,34.348
	L212.979,34.348z M352.544,5.993L352.544,5.993c0-1.165,0.943-2.108,2.107-2.108h4.922c3.881,0,7.031,3.148,7.031,7.027v28.469
	c0,4.27,3.461,7.731,7.73,7.731c4.271,0,7.73-3.462,7.73-7.731V10.913c0-3.879,3.148-7.027,7.031-7.027h4.92
	c1.164,0,2.109,0.943,2.109,2.108v33.389c0,12.033-9.756,21.789-21.791,21.789s-21.791-9.756-21.791-21.789V5.993L352.544,5.993z
	 M95.765,2.829L95.765,2.829c16.111,0,29.172,13.061,29.172,29.17c0,16.11-13.061,29.17-29.172,29.17
	c-16.11,0-29.17-13.06-29.17-29.17C66.595,15.89,79.654,2.829,95.765,2.829L95.765,2.829z M95.765,17.415L95.765,17.415
	c-8.055,0-14.584,6.53-14.584,14.584c0,8.055,6.529,14.584,14.584,14.584s14.586-6.529,14.586-14.584
	C110.351,23.945,103.819,17.415,95.765,17.415L95.765,17.415z M140.331,60.117L140.331,60.117c-1.164,0-2.109-0.944-2.109-2.108
	V10.913c0-3.881,3.146-7.029,7.031-7.029h1.961c2.295,0,4.445,1.119,5.758,2.999l20.395,29.134V10.913
	c0-3.881,3.146-7.029,7.031-7.029h4.918c1.168,0,2.111,0.943,2.111,2.108v47.096c0,3.883-3.146,7.028-7.029,7.028h-1.963
	c-2.291,0-4.443-1.12-5.76-2.998l-20.393-29.134v25.104c0,3.883-3.148,7.028-7.029,7.028h-4.922V60.117L140.331,60.117z
	 M466.802,10.913L466.802,10.913c0-3.881,3.148-7.029,7.031-7.029h24.953c1.166,0,2.109,0.943,2.109,2.108v2.813
	c0,3.881-3.145,7.029-7.029,7.029h-2.986v37.254c0,3.883-3.148,7.028-7.029,7.028h-4.922c-1.164,0-2.109-0.944-2.109-2.108V15.833
	h-7.906c-1.164,0-2.111-0.943-2.111-2.107V10.913L466.802,10.913z M249.298,10.913L249.298,10.913c0-3.881,3.148-7.029,7.029-7.029
	h24.955c1.164,0,2.111,0.943,2.111,2.108v2.813c0,3.881-3.148,7.029-7.031,7.029h-2.988v37.254c0,3.883-3.145,7.028-7.027,7.028
	h-4.922c-1.164,0-2.109-0.944-2.109-2.108V15.833h-7.906c-1.164,0-2.111-0.943-2.111-2.107V10.913L249.298,10.913z M325.255,40.72
	L325.255,40.72l13.369,15.934c1.146,1.368,0.17,3.464-1.615,3.464h-9.775c-2.074,0-4.047-0.918-5.383-2.51l-11.248-13.406v13.808
	c0,1.166-0.943,2.108-2.111,2.108h-4.918c-3.881,0-7.031-3.146-7.031-7.028V10.913c0-3.881,3.148-7.029,7.031-7.029h14.762
	c11.258,0,20.383,8.499,20.383,18.978C338.722,31.083,333.106,38.081,325.255,40.72L325.255,40.72z M310.603,15.833L310.603,15.833
	v16.167h4.217c5.436,0,9.84-3.62,9.84-8.084s-4.404-8.084-9.84-8.084h-4.217V15.833z"/>
</svg>
