<svg xmlns="http://www.w3.org/2000/svg" xml:space="preserve" width="512px" height="512px" x="0px" y="0px"><path fill-rule="evenodd" d="M255.998,382.52c-70.649,0-126.524-57.408-126.524-126.519	c0-69.543,56.313-126.523,126.524-126.523c45.529,0,85.443,24.051,107.733,60.148c1.036,1.68,0.479,3.898-1.233,4.889	c-19.908,11.499-39.811,22.984-59.723,34.474c-1.604,0.926-3.646,0.454-4.676-1.089c-9.078-13.574-24.544-22.508-42.096-22.508	c-28.267,0-50.612,22.958-50.612,50.608c0,27.818,22.524,50.61,50.608,50.61c20.788,0,39.25-12.671,46.925-31.629l66.007,38.105	C347.431,355.54,303.945,382.52,255.998,382.52z" clip-rule="evenodd"/></svg>