<svg xmlns="http://www.w3.org/2000/svg" xmlns:xlink="http://www.w3.org/1999/xlink" xml:space="preserve" width="512px" height="512px" x="0px" y="0px"><defs><path id="a" d="M287.577,286.035c-7.939,8.344-19.15,13.546-31.577,13.546c-24.07,0-43.583-19.513-43.583-43.583 S231.93,212.415,256,212.415c18.642,0,34.546,11.705,40.773,28.165l78.26-45.19c-22.088-43.293-67.098-72.94-119.033-72.94 c-73.757,0-133.549,59.792-133.549,133.548S182.243,389.547,256,389.547c45.616,0,85.883-22.876,109.975-57.777 c-3.103-2.024-4.114-6.147-2.239-9.395c1.036-1.684,0.478-3.898-1.235-4.896c-19.91-11.495-39.817-22.98-59.727-34.476 c-1.598-0.922-3.646-0.444-4.676,1.094c-1.94,3.36-6.239,4.513-9.6,2.572C288.169,286.479,287.862,286.267,287.577,286.035z"/></defs><clipPath id="b"><use xlink:href="#a" overflow="visible"/></clipPath><g fill-rule="evenodd" clip-path="url(#b)" clip-rule="evenodd"><circle cx="256" cy="256" r="133.549" fill="#A5B6C8"/><path fill="#DAE8F6" d="M182.397,298.497c-1.726,1.001-2.277,3.25-1.206,4.932 c15.704,24.73,43.342,41.14,74.811,41.14c48.811,0,88.565-39.573,88.565-88.568h44.981c0-73.757-59.792-133.549-133.549-133.549 c-49.427,0-92.58,26.854-115.673,66.765c11.943,6.895,23.939,13.819,35.98,20.771c1.634,0.945,3.72,0.426,4.729-1.168 c15.68-24.866,43.392-41.387,74.964-41.387c49.672,0,88.567,40.384,88.567,88.567H256 C231.465,270.17,206.935,284.335,182.397,298.497z"/></g></svg>